<mxfile host="app.diagrams.net" agent="Mozilla/5.0 (X11; Linux x86_64) AppleWebKit/537.36 (KHTML, like Gecko) Chrome/127.0.0.0 Safari/537.36" version="24.7.7">
  <diagram name="Page-1" id="NrXvBwLF3yUhok7ZrtAU">
    <mxGraphModel dx="2258" dy="622" grid="1" gridSize="10" guides="1" tooltips="1" connect="1" arrows="1" fold="1" page="1" pageScale="1" pageWidth="1100" pageHeight="850" math="0" shadow="0">
      <root>
        <mxCell id="0" />
        <mxCell id="1" parent="0" />
        <mxCell id="Jrafk22P2l9gE55oJqvQ-18" style="edgeStyle=orthogonalEdgeStyle;rounded=0;orthogonalLoop=1;jettySize=auto;html=1;exitX=0.5;exitY=0.5;exitDx=0;exitDy=0;exitPerimeter=0;" edge="1" parent="1" source="Jrafk22P2l9gE55oJqvQ-6" target="Jrafk22P2l9gE55oJqvQ-17">
          <mxGeometry relative="1" as="geometry" />
        </mxCell>
        <mxCell id="Jrafk22P2l9gE55oJqvQ-6" value="User 1&lt;div&gt;&lt;br&gt;&lt;/div&gt;" style="shape=umlActor;verticalLabelPosition=bottom;verticalAlign=top;html=1;outlineConnect=0;" vertex="1" parent="1">
          <mxGeometry x="-1080" y="50" width="30" height="60" as="geometry" />
        </mxCell>
        <mxCell id="Jrafk22P2l9gE55oJqvQ-8" value="&lt;div&gt;User 3&lt;/div&gt;" style="shape=umlActor;verticalLabelPosition=bottom;verticalAlign=top;html=1;outlineConnect=0;" vertex="1" parent="1">
          <mxGeometry x="-1080" y="250" width="30" height="60" as="geometry" />
        </mxCell>
        <mxCell id="Jrafk22P2l9gE55oJqvQ-9" value="User 2" style="shape=umlActor;verticalLabelPosition=bottom;verticalAlign=top;html=1;outlineConnect=0;" vertex="1" parent="1">
          <mxGeometry x="-1080" y="150" width="30" height="60" as="geometry" />
        </mxCell>
        <mxCell id="Jrafk22P2l9gE55oJqvQ-10" value="&lt;div&gt;User 4&lt;/div&gt;" style="shape=umlActor;verticalLabelPosition=bottom;verticalAlign=top;html=1;outlineConnect=0;" vertex="1" parent="1">
          <mxGeometry x="-1080" y="350" width="30" height="60" as="geometry" />
        </mxCell>
        <mxCell id="Jrafk22P2l9gE55oJqvQ-11" value="User N" style="shape=umlActor;verticalLabelPosition=bottom;verticalAlign=top;html=1;outlineConnect=0;" vertex="1" parent="1">
          <mxGeometry x="-1080" y="460" width="30" height="60" as="geometry" />
        </mxCell>
        <mxCell id="Jrafk22P2l9gE55oJqvQ-24" value="" style="edgeStyle=orthogonalEdgeStyle;rounded=0;orthogonalLoop=1;jettySize=auto;html=1;" edge="1" parent="1" source="Jrafk22P2l9gE55oJqvQ-17" target="Jrafk22P2l9gE55oJqvQ-23">
          <mxGeometry relative="1" as="geometry" />
        </mxCell>
        <mxCell id="Jrafk22P2l9gE55oJqvQ-17" value="NGINX" style="strokeWidth=2;html=1;shape=mxgraph.flowchart.decision;whiteSpace=wrap;" vertex="1" parent="1">
          <mxGeometry x="-930" y="230" width="100" height="100" as="geometry" />
        </mxCell>
        <mxCell id="Jrafk22P2l9gE55oJqvQ-19" style="edgeStyle=orthogonalEdgeStyle;rounded=0;orthogonalLoop=1;jettySize=auto;html=1;exitX=0.5;exitY=0.5;exitDx=0;exitDy=0;exitPerimeter=0;entryX=0.22;entryY=0.297;entryDx=0;entryDy=0;entryPerimeter=0;" edge="1" parent="1" source="Jrafk22P2l9gE55oJqvQ-9" target="Jrafk22P2l9gE55oJqvQ-17">
          <mxGeometry relative="1" as="geometry" />
        </mxCell>
        <mxCell id="Jrafk22P2l9gE55oJqvQ-20" style="edgeStyle=orthogonalEdgeStyle;rounded=0;orthogonalLoop=1;jettySize=auto;html=1;exitX=0.5;exitY=0.5;exitDx=0;exitDy=0;exitPerimeter=0;entryX=0;entryY=0.5;entryDx=0;entryDy=0;entryPerimeter=0;" edge="1" parent="1" source="Jrafk22P2l9gE55oJqvQ-8" target="Jrafk22P2l9gE55oJqvQ-17">
          <mxGeometry relative="1" as="geometry" />
        </mxCell>
        <mxCell id="Jrafk22P2l9gE55oJqvQ-21" style="edgeStyle=orthogonalEdgeStyle;rounded=0;orthogonalLoop=1;jettySize=auto;html=1;exitX=0.5;exitY=0.5;exitDx=0;exitDy=0;exitPerimeter=0;entryX=0.228;entryY=0.713;entryDx=0;entryDy=0;entryPerimeter=0;" edge="1" parent="1" source="Jrafk22P2l9gE55oJqvQ-10" target="Jrafk22P2l9gE55oJqvQ-17">
          <mxGeometry relative="1" as="geometry" />
        </mxCell>
        <mxCell id="Jrafk22P2l9gE55oJqvQ-22" style="edgeStyle=orthogonalEdgeStyle;rounded=0;orthogonalLoop=1;jettySize=auto;html=1;exitX=0.5;exitY=0.5;exitDx=0;exitDy=0;exitPerimeter=0;entryX=0.5;entryY=1;entryDx=0;entryDy=0;entryPerimeter=0;" edge="1" parent="1" source="Jrafk22P2l9gE55oJqvQ-11" target="Jrafk22P2l9gE55oJqvQ-17">
          <mxGeometry relative="1" as="geometry" />
        </mxCell>
        <mxCell id="Jrafk22P2l9gE55oJqvQ-23" value="Flet Website" style="whiteSpace=wrap;html=1;strokeWidth=2;" vertex="1" parent="1">
          <mxGeometry x="-760" y="250" width="120" height="60" as="geometry" />
        </mxCell>
      </root>
    </mxGraphModel>
  </diagram>
</mxfile>
